<mxfile host="app.diagrams.net" agent="Mozilla/5.0 (Windows NT 10.0; Win64; x64) AppleWebKit/537.36 (KHTML, like Gecko) Chrome/133.0.0.0 Safari/537.36 Edg/133.0.0.0" version="26.0.14">
  <diagram name="1 oldal" id="ZJNlt0p2cuj-EyZ9qJeg">
    <mxGraphModel dx="1042" dy="1757" grid="1" gridSize="10" guides="1" tooltips="1" connect="1" arrows="1" fold="1" page="1" pageScale="1" pageWidth="827" pageHeight="1169" math="0" shadow="0">
      <root>
        <mxCell id="0" />
        <mxCell id="1" parent="0" />
        <mxCell id="0xlQwM45gvaiOn_g7P1d-1" value="User" style="shape=umlActor;verticalLabelPosition=bottom;verticalAlign=top;html=1;outlineConnect=0;" parent="1" vertex="1">
          <mxGeometry x="70" y="-10" width="30" height="60" as="geometry" />
        </mxCell>
        <mxCell id="0xlQwM45gvaiOn_g7P1d-10" value="" style="endArrow=block;html=1;rounded=0;align=center;verticalAlign=bottom;endFill=0;labelBackgroundColor=none;endSize=8;exitX=0.5;exitY=0;exitDx=0;exitDy=0;exitPerimeter=0;" parent="1" source="0xlQwM45gvaiOn_g7P1d-48" edge="1">
          <mxGeometry relative="1" as="geometry">
            <mxPoint x="30" y="180" as="sourcePoint" />
            <mxPoint x="80" y="80" as="targetPoint" />
            <Array as="points">
              <mxPoint x="115" y="270" />
              <mxPoint x="80" y="270" />
              <mxPoint x="80" y="180" />
              <mxPoint x="80" y="170" />
            </Array>
          </mxGeometry>
        </mxCell>
        <mxCell id="0xlQwM45gvaiOn_g7P1d-13" value="Admin" style="shape=umlActor;verticalLabelPosition=bottom;verticalAlign=top;html=1;outlineConnect=0;" parent="1" vertex="1">
          <mxGeometry x="130" y="564" width="30" height="60" as="geometry" />
        </mxCell>
        <mxCell id="0xlQwM45gvaiOn_g7P1d-17" value="LandLord" style="shape=umlActor;verticalLabelPosition=bottom;verticalAlign=top;html=1;outlineConnect=0;" parent="1" vertex="1">
          <mxGeometry x="130" y="430" width="30" height="60" as="geometry" />
        </mxCell>
        <mxCell id="0xlQwM45gvaiOn_g7P1d-26" value="&lt;div&gt;&lt;br&gt;&lt;/div&gt;&lt;div&gt;&lt;br&gt;&lt;/div&gt;" style="endArrow=none;html=1;rounded=0;align=center;verticalAlign=top;endFill=0;labelBackgroundColor=none;entryX=0.5;entryY=0;entryDx=0;entryDy=0;entryPerimeter=0;" parent="1" target="0xlQwM45gvaiOn_g7P1d-17" edge="1">
          <mxGeometry relative="1" as="geometry">
            <mxPoint x="80" y="170" as="sourcePoint" />
            <mxPoint x="270" y="170" as="targetPoint" />
            <Array as="points">
              <mxPoint x="145" y="170" />
            </Array>
          </mxGeometry>
        </mxCell>
        <mxCell id="0xlQwM45gvaiOn_g7P1d-33" value="" style="rounded=0;whiteSpace=wrap;html=1;direction=south;" parent="1" vertex="1">
          <mxGeometry x="160" y="-10" width="460" height="700" as="geometry" />
        </mxCell>
        <mxCell id="0xlQwM45gvaiOn_g7P1d-34" value="See listings" style="ellipse;whiteSpace=wrap;html=1;" parent="1" vertex="1">
          <mxGeometry x="230" y="10" width="90" height="40" as="geometry" />
        </mxCell>
        <mxCell id="0xlQwM45gvaiOn_g7P1d-37" value="Login" style="ellipse;whiteSpace=wrap;html=1;" parent="1" vertex="1">
          <mxGeometry x="380" y="200" width="90" height="40" as="geometry" />
        </mxCell>
        <mxCell id="0xlQwM45gvaiOn_g7P1d-39" value="Search for listings" style="ellipse;whiteSpace=wrap;html=1;" parent="1" vertex="1">
          <mxGeometry x="230" y="120" width="90" height="40" as="geometry" />
        </mxCell>
        <mxCell id="0xlQwM45gvaiOn_g7P1d-43" value="" style="endArrow=block;html=1;rounded=0;align=center;verticalAlign=bottom;endFill=0;labelBackgroundColor=none;endSize=8;" parent="1" edge="1">
          <mxGeometry relative="1" as="geometry">
            <mxPoint x="80" y="180" as="sourcePoint" />
            <mxPoint x="80" y="80" as="targetPoint" />
            <Array as="points" />
          </mxGeometry>
        </mxCell>
        <mxCell id="0xlQwM45gvaiOn_g7P1d-48" value="Renter/Buyer" style="shape=umlActor;verticalLabelPosition=bottom;verticalAlign=top;html=1;outlineConnect=0;" parent="1" vertex="1">
          <mxGeometry x="100" y="310" width="30" height="60" as="geometry" />
        </mxCell>
        <mxCell id="0xlQwM45gvaiOn_g7P1d-51" value="" style="endArrow=none;html=1;rounded=0;exitX=1;exitY=0.3333333333333333;exitDx=0;exitDy=0;exitPerimeter=0;entryX=0;entryY=0.5;entryDx=0;entryDy=0;" parent="1" source="0xlQwM45gvaiOn_g7P1d-1" target="0xlQwM45gvaiOn_g7P1d-34" edge="1">
          <mxGeometry width="50" height="50" relative="1" as="geometry">
            <mxPoint x="220" y="70" as="sourcePoint" />
            <mxPoint x="270" y="20" as="targetPoint" />
            <Array as="points">
              <mxPoint x="130" y="10" />
              <mxPoint x="190" y="10" />
              <mxPoint x="190" y="30" />
            </Array>
          </mxGeometry>
        </mxCell>
        <mxCell id="0xlQwM45gvaiOn_g7P1d-52" value="" style="endArrow=none;html=1;rounded=0;entryX=0.5;entryY=0;entryDx=0;entryDy=0;" parent="1" target="0xlQwM45gvaiOn_g7P1d-37" edge="1">
          <mxGeometry width="50" height="50" relative="1" as="geometry">
            <mxPoint x="130" y="10" as="sourcePoint" />
            <mxPoint x="275" y="60" as="targetPoint" />
            <Array as="points">
              <mxPoint x="130" y="10" />
              <mxPoint x="190" y="10" />
              <mxPoint x="190" y="80" />
              <mxPoint x="355" y="80" />
              <mxPoint x="420" y="80" />
            </Array>
          </mxGeometry>
        </mxCell>
        <mxCell id="0xlQwM45gvaiOn_g7P1d-53" value="" style="endArrow=none;html=1;rounded=0;exitX=1;exitY=0.3333333333333333;exitDx=0;exitDy=0;exitPerimeter=0;entryX=0;entryY=0.5;entryDx=0;entryDy=0;" parent="1" source="0xlQwM45gvaiOn_g7P1d-1" target="0xlQwM45gvaiOn_g7P1d-39" edge="1">
          <mxGeometry width="50" height="50" relative="1" as="geometry">
            <mxPoint x="110" y="70" as="sourcePoint" />
            <mxPoint x="285" y="120" as="targetPoint" />
            <Array as="points">
              <mxPoint x="130" y="10" />
              <mxPoint x="190" y="10" />
              <mxPoint x="190" y="40" />
              <mxPoint x="190" y="140" />
            </Array>
          </mxGeometry>
        </mxCell>
        <mxCell id="0xlQwM45gvaiOn_g7P1d-55" value="See messages" style="ellipse;whiteSpace=wrap;html=1;" parent="1" vertex="1">
          <mxGeometry x="230" y="170" width="90" height="40" as="geometry" />
        </mxCell>
        <mxCell id="0xlQwM45gvaiOn_g7P1d-56" value="Send message" style="ellipse;whiteSpace=wrap;html=1;" parent="1" vertex="1">
          <mxGeometry x="230" y="220" width="90" height="40" as="geometry" />
        </mxCell>
        <mxCell id="0xlQwM45gvaiOn_g7P1d-57" value="" style="endArrow=none;html=1;rounded=0;entryX=0;entryY=0.5;entryDx=0;entryDy=0;" parent="1" target="0xlQwM45gvaiOn_g7P1d-55" edge="1">
          <mxGeometry width="50" height="50" relative="1" as="geometry">
            <mxPoint x="190" y="120" as="sourcePoint" />
            <mxPoint x="300" y="170" as="targetPoint" />
            <Array as="points">
              <mxPoint x="190" y="190" />
            </Array>
          </mxGeometry>
        </mxCell>
        <mxCell id="0xlQwM45gvaiOn_g7P1d-58" value="" style="endArrow=none;html=1;rounded=0;entryX=0;entryY=0.5;entryDx=0;entryDy=0;" parent="1" target="0xlQwM45gvaiOn_g7P1d-56" edge="1">
          <mxGeometry width="50" height="50" relative="1" as="geometry">
            <mxPoint x="190" y="170" as="sourcePoint" />
            <mxPoint x="270" y="190" as="targetPoint" />
            <Array as="points">
              <mxPoint x="190" y="240" />
            </Array>
          </mxGeometry>
        </mxCell>
        <mxCell id="0xlQwM45gvaiOn_g7P1d-59" value="Create listing" style="ellipse;whiteSpace=wrap;html=1;" parent="1" vertex="1">
          <mxGeometry x="230" y="380" width="90" height="40" as="geometry" />
        </mxCell>
        <mxCell id="0xlQwM45gvaiOn_g7P1d-60" value="" style="endArrow=none;html=1;rounded=0;entryX=0;entryY=0.5;entryDx=0;entryDy=0;exitX=1;exitY=0.3333333333333333;exitDx=0;exitDy=0;exitPerimeter=0;" parent="1" source="0xlQwM45gvaiOn_g7P1d-17" target="0xlQwM45gvaiOn_g7P1d-59" edge="1">
          <mxGeometry width="50" height="50" relative="1" as="geometry">
            <mxPoint x="220" y="410" as="sourcePoint" />
            <mxPoint x="270" y="360" as="targetPoint" />
            <Array as="points">
              <mxPoint x="220" y="450" />
              <mxPoint x="220" y="420" />
              <mxPoint x="220" y="400" />
            </Array>
          </mxGeometry>
        </mxCell>
        <mxCell id="0xlQwM45gvaiOn_g7P1d-63" value="Edit listing" style="ellipse;whiteSpace=wrap;html=1;" parent="1" vertex="1">
          <mxGeometry x="235" y="480" width="90" height="40" as="geometry" />
        </mxCell>
        <mxCell id="0xlQwM45gvaiOn_g7P1d-64" value="" style="endArrow=none;html=1;rounded=0;exitX=0;exitY=0.5;exitDx=0;exitDy=0;entryX=0;entryY=0.5;entryDx=0;entryDy=0;" parent="1" source="0xlQwM45gvaiOn_g7P1d-63" target="0xlQwM45gvaiOn_g7P1d-59" edge="1">
          <mxGeometry width="50" height="50" relative="1" as="geometry">
            <mxPoint x="220" y="500" as="sourcePoint" />
            <mxPoint x="220" y="450" as="targetPoint" />
            <Array as="points">
              <mxPoint x="220" y="500" />
              <mxPoint x="220" y="450" />
              <mxPoint x="220" y="420" />
              <mxPoint x="220" y="400" />
            </Array>
          </mxGeometry>
        </mxCell>
        <mxCell id="0xlQwM45gvaiOn_g7P1d-67" value="Make offer" style="ellipse;whiteSpace=wrap;html=1;" parent="1" vertex="1">
          <mxGeometry x="220" y="320" width="90" height="40" as="geometry" />
        </mxCell>
        <mxCell id="0xlQwM45gvaiOn_g7P1d-69" value="Comment on listing" style="ellipse;whiteSpace=wrap;html=1;" parent="1" vertex="1">
          <mxGeometry x="230" y="270" width="90" height="40" as="geometry" />
        </mxCell>
        <mxCell id="0xlQwM45gvaiOn_g7P1d-70" value="" style="endArrow=none;html=1;rounded=0;" parent="1" edge="1">
          <mxGeometry width="50" height="50" relative="1" as="geometry">
            <mxPoint x="190" y="240" as="sourcePoint" />
            <mxPoint x="230" y="290" as="targetPoint" />
            <Array as="points">
              <mxPoint x="190" y="290" />
            </Array>
          </mxGeometry>
        </mxCell>
        <mxCell id="0xlQwM45gvaiOn_g7P1d-72" value="Manage Listings" style="ellipse;whiteSpace=wrap;html=1;" parent="1" vertex="1">
          <mxGeometry x="230" y="545" width="90" height="40" as="geometry" />
        </mxCell>
        <mxCell id="0xlQwM45gvaiOn_g7P1d-73" value="Manage users" style="ellipse;whiteSpace=wrap;html=1;" parent="1" vertex="1">
          <mxGeometry x="230" y="600" width="90" height="40" as="geometry" />
        </mxCell>
        <mxCell id="0xlQwM45gvaiOn_g7P1d-74" value="" style="endArrow=none;html=1;rounded=0;exitX=1;exitY=0.3333333333333333;exitDx=0;exitDy=0;exitPerimeter=0;entryX=-0.009;entryY=0.325;entryDx=0;entryDy=0;entryPerimeter=0;" parent="1" source="0xlQwM45gvaiOn_g7P1d-48" target="0xlQwM45gvaiOn_g7P1d-67" edge="1">
          <mxGeometry width="50" height="50" relative="1" as="geometry">
            <mxPoint x="170" y="420" as="sourcePoint" />
            <mxPoint x="220" y="370" as="targetPoint" />
          </mxGeometry>
        </mxCell>
        <mxCell id="0xlQwM45gvaiOn_g7P1d-75" value="" style="endArrow=none;html=1;rounded=0;exitX=1;exitY=0.3333333333333333;exitDx=0;exitDy=0;exitPerimeter=0;entryX=0;entryY=0.5;entryDx=0;entryDy=0;" parent="1" source="0xlQwM45gvaiOn_g7P1d-13" target="0xlQwM45gvaiOn_g7P1d-72" edge="1">
          <mxGeometry width="50" height="50" relative="1" as="geometry">
            <mxPoint x="220" y="590" as="sourcePoint" />
            <mxPoint x="270" y="540" as="targetPoint" />
          </mxGeometry>
        </mxCell>
        <mxCell id="0xlQwM45gvaiOn_g7P1d-76" value="" style="endArrow=none;html=1;rounded=0;exitX=1;exitY=0.3333333333333333;exitDx=0;exitDy=0;exitPerimeter=0;entryX=0.5;entryY=0;entryDx=0;entryDy=0;" parent="1" source="0xlQwM45gvaiOn_g7P1d-13" target="0xlQwM45gvaiOn_g7P1d-73" edge="1">
          <mxGeometry width="50" height="50" relative="1" as="geometry">
            <mxPoint x="220" y="590" as="sourcePoint" />
            <mxPoint x="270" y="540" as="targetPoint" />
            <Array as="points">
              <mxPoint x="200" y="600" />
            </Array>
          </mxGeometry>
        </mxCell>
        <mxCell id="0xlQwM45gvaiOn_g7P1d-79" value="Wrong credentials" style="ellipse;whiteSpace=wrap;html=1;" parent="1" vertex="1">
          <mxGeometry x="520" y="240" width="90" height="40" as="geometry" />
        </mxCell>
        <mxCell id="0xlQwM45gvaiOn_g7P1d-81" value="Respond to an offer" style="ellipse;whiteSpace=wrap;html=1;" parent="1" vertex="1">
          <mxGeometry x="230" y="430" width="100" height="40" as="geometry" />
        </mxCell>
        <mxCell id="0xlQwM45gvaiOn_g7P1d-84" value="" style="endArrow=none;html=1;rounded=0;entryX=0;entryY=0.5;entryDx=0;entryDy=0;" parent="1" target="0xlQwM45gvaiOn_g7P1d-81" edge="1">
          <mxGeometry width="50" height="50" relative="1" as="geometry">
            <mxPoint x="220" y="450" as="sourcePoint" />
            <mxPoint x="400" y="440" as="targetPoint" />
          </mxGeometry>
        </mxCell>
        <mxCell id="z0Ypj6NN_3ek7tybDNUS-1" value="Server" style="shape=umlActor;verticalLabelPosition=bottom;verticalAlign=top;html=1;outlineConnect=0;" parent="1" vertex="1">
          <mxGeometry x="680" y="-10" width="30" height="60" as="geometry" />
        </mxCell>
        <mxCell id="z0Ypj6NN_3ek7tybDNUS-2" value="Provide Database" style="ellipse;whiteSpace=wrap;html=1;" parent="1" vertex="1">
          <mxGeometry x="460" width="90" height="40" as="geometry" />
        </mxCell>
        <mxCell id="z0Ypj6NN_3ek7tybDNUS-3" value="" style="endArrow=none;html=1;rounded=0;exitX=1;exitY=0.5;exitDx=0;exitDy=0;entryX=0;entryY=0.3333333333333333;entryDx=0;entryDy=0;entryPerimeter=0;" parent="1" source="z0Ypj6NN_3ek7tybDNUS-2" target="z0Ypj6NN_3ek7tybDNUS-1" edge="1">
          <mxGeometry width="50" height="50" relative="1" as="geometry">
            <mxPoint x="670" y="100" as="sourcePoint" />
            <mxPoint x="720" y="50" as="targetPoint" />
          </mxGeometry>
        </mxCell>
        <mxCell id="z0Ypj6NN_3ek7tybDNUS-13" value="" style="endArrow=none;dashed=1;html=1;dashPattern=1 3;strokeWidth=2;rounded=0;exitX=1;exitY=0.5;exitDx=0;exitDy=0;entryX=0;entryY=0.5;entryDx=0;entryDy=0;" parent="1" source="0xlQwM45gvaiOn_g7P1d-55" target="0xlQwM45gvaiOn_g7P1d-37" edge="1">
          <mxGeometry width="50" height="50" relative="1" as="geometry">
            <mxPoint x="310" y="265" as="sourcePoint" />
            <mxPoint x="360" y="215" as="targetPoint" />
          </mxGeometry>
        </mxCell>
        <mxCell id="z0Ypj6NN_3ek7tybDNUS-16" value="&amp;lt;&amp;lt;include&amp;gt;&amp;gt;" style="edgeLabel;html=1;align=center;verticalAlign=middle;resizable=0;points=[];" parent="z0Ypj6NN_3ek7tybDNUS-13" connectable="0" vertex="1">
          <mxGeometry x="0.2554" y="-3" relative="1" as="geometry">
            <mxPoint x="11" y="-18" as="offset" />
          </mxGeometry>
        </mxCell>
        <mxCell id="z0Ypj6NN_3ek7tybDNUS-14" value="" style="endArrow=none;dashed=1;html=1;dashPattern=1 3;strokeWidth=2;rounded=0;exitX=1;exitY=0.5;exitDx=0;exitDy=0;entryX=0;entryY=0.5;entryDx=0;entryDy=0;" parent="1" target="0xlQwM45gvaiOn_g7P1d-37" edge="1">
          <mxGeometry width="50" height="50" relative="1" as="geometry">
            <mxPoint x="320" y="240" as="sourcePoint" />
            <mxPoint x="360" y="265" as="targetPoint" />
          </mxGeometry>
        </mxCell>
        <mxCell id="z0Ypj6NN_3ek7tybDNUS-15" value="" style="endArrow=none;dashed=1;html=1;dashPattern=1 3;strokeWidth=2;rounded=0;exitX=1;exitY=0.5;exitDx=0;exitDy=0;entryX=0;entryY=0.5;entryDx=0;entryDy=0;" parent="1" source="0xlQwM45gvaiOn_g7P1d-69" target="0xlQwM45gvaiOn_g7P1d-37" edge="1">
          <mxGeometry width="50" height="50" relative="1" as="geometry">
            <mxPoint x="310" y="270" as="sourcePoint" />
            <mxPoint x="360" y="220" as="targetPoint" />
          </mxGeometry>
        </mxCell>
        <mxCell id="z0Ypj6NN_3ek7tybDNUS-17" value="&amp;lt;&amp;lt;include&amp;gt;&amp;gt;" style="edgeLabel;html=1;align=center;verticalAlign=middle;resizable=0;points=[];" parent="1" connectable="0" vertex="1">
          <mxGeometry x="324.99995230014326" y="220.0039631121104" as="geometry" />
        </mxCell>
        <mxCell id="z0Ypj6NN_3ek7tybDNUS-18" value="&amp;lt;&amp;lt;include&amp;gt;&amp;gt;" style="edgeLabel;html=1;align=center;verticalAlign=middle;resizable=0;points=[];" parent="1" connectable="0" vertex="1">
          <mxGeometry x="324.99995230014326" y="260.0039631121104" as="geometry" />
        </mxCell>
        <mxCell id="z0Ypj6NN_3ek7tybDNUS-20" value="&amp;lt;&amp;lt;include&amp;gt;&amp;gt;" style="edgeLabel;html=1;align=center;verticalAlign=middle;resizable=0;points=[];" parent="1" connectable="0" vertex="1">
          <mxGeometry x="349.99995230014326" y="300.0039631121104" as="geometry" />
        </mxCell>
        <mxCell id="z0Ypj6NN_3ek7tybDNUS-21" value="" style="endArrow=none;dashed=1;html=1;dashPattern=1 3;strokeWidth=2;rounded=0;entryX=0;entryY=0.5;entryDx=0;entryDy=0;exitX=1;exitY=0.5;exitDx=0;exitDy=0;" parent="1" source="0xlQwM45gvaiOn_g7P1d-67" target="0xlQwM45gvaiOn_g7P1d-37" edge="1">
          <mxGeometry width="50" height="50" relative="1" as="geometry">
            <mxPoint x="330" y="300" as="sourcePoint" />
            <mxPoint x="390" y="230" as="targetPoint" />
          </mxGeometry>
        </mxCell>
        <mxCell id="z0Ypj6NN_3ek7tybDNUS-23" value="Accept" style="ellipse;whiteSpace=wrap;html=1;" parent="1" vertex="1">
          <mxGeometry x="370" y="410" width="90" height="40" as="geometry" />
        </mxCell>
        <mxCell id="z0Ypj6NN_3ek7tybDNUS-24" value="Decline" style="ellipse;whiteSpace=wrap;html=1;" parent="1" vertex="1">
          <mxGeometry x="370" y="460" width="90" height="40" as="geometry" />
        </mxCell>
        <mxCell id="z0Ypj6NN_3ek7tybDNUS-27" value="" style="endArrow=block;html=1;rounded=0;align=center;verticalAlign=bottom;endFill=0;labelBackgroundColor=none;endSize=8;entryX=1;entryY=0.5;entryDx=0;entryDy=0;" parent="1" target="0xlQwM45gvaiOn_g7P1d-81" edge="1">
          <mxGeometry relative="1" as="geometry">
            <mxPoint x="370" y="430" as="sourcePoint" />
            <mxPoint x="585" y="399.71" as="targetPoint" />
          </mxGeometry>
        </mxCell>
        <mxCell id="z0Ypj6NN_3ek7tybDNUS-28" value="" style="resizable=0;html=1;align=center;verticalAlign=top;labelBackgroundColor=none;" parent="z0Ypj6NN_3ek7tybDNUS-27" connectable="0" vertex="1">
          <mxGeometry relative="1" as="geometry" />
        </mxCell>
        <mxCell id="z0Ypj6NN_3ek7tybDNUS-29" value="" style="endArrow=block;html=1;rounded=0;align=center;verticalAlign=bottom;endFill=0;labelBackgroundColor=none;endSize=8;entryX=1;entryY=0.5;entryDx=0;entryDy=0;" parent="1" target="0xlQwM45gvaiOn_g7P1d-81" edge="1">
          <mxGeometry relative="1" as="geometry">
            <mxPoint x="370" y="480" as="sourcePoint" />
            <mxPoint x="330" y="500" as="targetPoint" />
          </mxGeometry>
        </mxCell>
        <mxCell id="z0Ypj6NN_3ek7tybDNUS-30" value="" style="resizable=0;html=1;align=center;verticalAlign=top;labelBackgroundColor=none;" parent="z0Ypj6NN_3ek7tybDNUS-29" connectable="0" vertex="1">
          <mxGeometry relative="1" as="geometry" />
        </mxCell>
        <mxCell id="z0Ypj6NN_3ek7tybDNUS-35" value="" style="endArrow=open;html=1;rounded=0;align=center;verticalAlign=bottom;dashed=1;endFill=0;labelBackgroundColor=none;entryX=0.5;entryY=1;entryDx=0;entryDy=0;exitX=0.5;exitY=0;exitDx=0;exitDy=0;" parent="1" source="0xlQwM45gvaiOn_g7P1d-39" target="0xlQwM45gvaiOn_g7P1d-34" edge="1">
          <mxGeometry relative="1" as="geometry">
            <mxPoint x="360" y="50" as="sourcePoint" />
            <mxPoint x="520" y="50" as="targetPoint" />
          </mxGeometry>
        </mxCell>
        <mxCell id="z0Ypj6NN_3ek7tybDNUS-36" value="&amp;lt;&amp;lt;include&amp;gt;&amp;gt;" style="resizable=0;html=1;align=center;verticalAlign=top;labelBackgroundColor=none;" parent="z0Ypj6NN_3ek7tybDNUS-35" connectable="0" vertex="1">
          <mxGeometry relative="1" as="geometry">
            <mxPoint x="25" y="-25" as="offset" />
          </mxGeometry>
        </mxCell>
        <mxCell id="z0Ypj6NN_3ek7tybDNUS-37" value="" style="endArrow=open;html=1;rounded=0;align=center;verticalAlign=bottom;dashed=1;endFill=0;labelBackgroundColor=none;entryX=0.961;entryY=0.701;entryDx=0;entryDy=0;exitX=0;exitY=0.5;exitDx=0;exitDy=0;entryPerimeter=0;" parent="1" source="0xlQwM45gvaiOn_g7P1d-79" target="0xlQwM45gvaiOn_g7P1d-37" edge="1">
          <mxGeometry relative="1" as="geometry">
            <mxPoint x="509.9999999999999" y="270" as="sourcePoint" />
            <mxPoint x="460" y="230" as="targetPoint" />
          </mxGeometry>
        </mxCell>
        <mxCell id="z0Ypj6NN_3ek7tybDNUS-39" value="&amp;lt;&amp;lt;extend&amp;gt;&amp;gt;" style="edgeLabel;html=1;align=center;verticalAlign=middle;resizable=0;points=[];" parent="z0Ypj6NN_3ek7tybDNUS-37" connectable="0" vertex="1">
          <mxGeometry x="0.0748" relative="1" as="geometry">
            <mxPoint as="offset" />
          </mxGeometry>
        </mxCell>
        <mxCell id="z0Ypj6NN_3ek7tybDNUS-40" value="Delete Listing" style="ellipse;whiteSpace=wrap;html=1;" parent="1" vertex="1">
          <mxGeometry x="350" y="545" width="90" height="40" as="geometry" />
        </mxCell>
        <mxCell id="z0Ypj6NN_3ek7tybDNUS-41" value="Ban Users" style="ellipse;whiteSpace=wrap;html=1;" parent="1" vertex="1">
          <mxGeometry x="350" y="585" width="90" height="40" as="geometry" />
        </mxCell>
        <mxCell id="z0Ypj6NN_3ek7tybDNUS-42" value="Mute Users" style="ellipse;whiteSpace=wrap;html=1;" parent="1" vertex="1">
          <mxGeometry x="350" y="625" width="90" height="40" as="geometry" />
        </mxCell>
        <mxCell id="z0Ypj6NN_3ek7tybDNUS-43" value="" style="endArrow=block;html=1;rounded=0;align=center;verticalAlign=bottom;endFill=0;labelBackgroundColor=none;endSize=8;entryX=1;entryY=0.5;entryDx=0;entryDy=0;exitX=0;exitY=0.5;exitDx=0;exitDy=0;" parent="1" source="z0Ypj6NN_3ek7tybDNUS-40" edge="1">
          <mxGeometry relative="1" as="geometry">
            <mxPoint x="360" y="594" as="sourcePoint" />
            <mxPoint x="320" y="564" as="targetPoint" />
          </mxGeometry>
        </mxCell>
        <mxCell id="z0Ypj6NN_3ek7tybDNUS-44" value="" style="resizable=0;html=1;align=center;verticalAlign=top;labelBackgroundColor=none;" parent="z0Ypj6NN_3ek7tybDNUS-43" connectable="0" vertex="1">
          <mxGeometry relative="1" as="geometry" />
        </mxCell>
        <mxCell id="z0Ypj6NN_3ek7tybDNUS-45" value="" style="endArrow=block;html=1;rounded=0;align=center;verticalAlign=bottom;endFill=0;labelBackgroundColor=none;endSize=8;entryX=1;entryY=0.5;entryDx=0;entryDy=0;exitX=0;exitY=0.5;exitDx=0;exitDy=0;" parent="1" source="z0Ypj6NN_3ek7tybDNUS-41" target="0xlQwM45gvaiOn_g7P1d-73" edge="1">
          <mxGeometry relative="1" as="geometry">
            <mxPoint x="360" y="575" as="sourcePoint" />
            <mxPoint x="330" y="574" as="targetPoint" />
            <Array as="points" />
          </mxGeometry>
        </mxCell>
        <mxCell id="z0Ypj6NN_3ek7tybDNUS-46" value="" style="resizable=0;html=1;align=center;verticalAlign=top;labelBackgroundColor=none;" parent="z0Ypj6NN_3ek7tybDNUS-45" connectable="0" vertex="1">
          <mxGeometry relative="1" as="geometry" />
        </mxCell>
        <mxCell id="z0Ypj6NN_3ek7tybDNUS-47" value="" style="endArrow=block;html=1;rounded=0;align=center;verticalAlign=bottom;endFill=0;labelBackgroundColor=none;endSize=8;entryX=1;entryY=0.5;entryDx=0;entryDy=0;exitX=0;exitY=0.5;exitDx=0;exitDy=0;" parent="1" source="z0Ypj6NN_3ek7tybDNUS-42" target="0xlQwM45gvaiOn_g7P1d-73" edge="1">
          <mxGeometry relative="1" as="geometry">
            <mxPoint x="360" y="615" as="sourcePoint" />
            <mxPoint x="330" y="630" as="targetPoint" />
            <Array as="points">
              <mxPoint x="340" y="640" />
            </Array>
          </mxGeometry>
        </mxCell>
        <mxCell id="z0Ypj6NN_3ek7tybDNUS-48" value="" style="resizable=0;html=1;align=center;verticalAlign=top;labelBackgroundColor=none;" parent="z0Ypj6NN_3ek7tybDNUS-47" connectable="0" vertex="1">
          <mxGeometry relative="1" as="geometry" />
        </mxCell>
      </root>
    </mxGraphModel>
  </diagram>
</mxfile>
